<svg width="24" height="24" viewBox="0 0 24 24" fill="none" xmlns="http://www.w3.org/2000/svg">
<path d="M12.003 2.00102C13.303 1.95927 14.5982 2.17927 15.8115 2.64796C17.0248 3.11664 18.1316 3.82443 19.0659 4.72929C20.0003 5.63414 20.7433 6.71758 21.2506 7.91524C21.758 9.11289 22.0195 10.4003 22.0195 11.701C22.0195 13.0017 21.758 14.2891 21.2506 15.4868C20.7433 16.6844 20.0003 17.7679 19.0659 18.6727C18.1316 19.5776 17.0248 20.2854 15.8115 20.7541C14.5982 21.2228 13.303 21.4428 12.003 21.401C11.0251 21.4037 10.0514 21.2746 9.108 21.017C8.93102 20.9687 8.74279 20.9828 8.575 21.057L6.591 21.933C6.47104 21.9858 6.33996 22.0083 6.20927 21.9986C6.07859 21.9889 5.95228 21.9472 5.84142 21.8773C5.73056 21.8075 5.63855 21.7114 5.57344 21.5977C5.50834 21.484 5.47213 21.356 5.468 21.225L5.414 19.445C5.40949 19.3369 5.38327 19.2308 5.33688 19.1331C5.29049 19.0353 5.2249 18.9479 5.144 18.876C4.14018 17.9724 3.3408 16.8649 2.7993 15.6275C2.25781 14.3902 1.98667 13.0515 2.004 11.701C1.9964 10.3996 2.25214 9.11002 2.75583 7.90996C3.25952 6.7099 4.00076 5.62413 4.93495 4.71797C5.86914 3.81181 6.97697 3.10398 8.19181 2.63706C9.40665 2.17014 10.7034 1.95379 12.004 2.00102H12.003Z" stroke="black" stroke-width="1.739" stroke-miterlimit="10"/>
<path fill-rule="evenodd" clip-rule="evenodd" d="M17.79 10.132C17.8735 10.0009 17.908 9.84443 17.8874 9.69033C17.8667 9.53623 17.7922 9.3944 17.6771 9.28992C17.5619 9.18543 17.4136 9.12502 17.2582 9.11936C17.1028 9.11371 16.9504 9.16317 16.828 9.25901L14.272 11.309C14.163 11.3916 14.0301 11.4364 13.8933 11.4368C13.7566 11.4371 13.6235 11.393 13.514 11.311L11.06 9.47001C10.8859 9.33966 10.6867 9.24676 10.475 9.19715C10.2632 9.14755 10.0435 9.1423 9.8296 9.18175C9.61572 9.2212 9.41232 9.30449 9.23221 9.42638C9.05209 9.54827 8.89914 9.70613 8.783 9.89001L6.216 13.87C6.13172 14.001 6.09658 14.1577 6.11682 14.3121C6.13706 14.4666 6.21137 14.6089 6.32657 14.7138C6.44176 14.8187 6.59039 14.8794 6.74607 14.8851C6.90176 14.8908 7.05443 14.8412 7.177 14.745L9.733 12.696C9.84211 12.6132 9.97521 12.5682 10.1122 12.5679C10.2491 12.5675 10.3825 12.6118 10.492 12.694L12.944 14.534C13.1181 14.6645 13.3174 14.7576 13.5293 14.8073C13.7411 14.857 13.961 14.8622 14.175 14.8228C14.389 14.7833 14.5925 14.7 14.7727 14.578C14.9529 14.456 15.1059 14.298 15.222 14.114L17.79 10.132Z" fill="#262626"/>
</svg>
