<svg width="24" height="24" viewBox="0 0 24 24" fill="none" xmlns="http://www.w3.org/2000/svg">
<g clip-path="url(#clip0_17_100)">
<path d="M15.83 10.9971C15.5992 10.9971 15.3736 11.0655 15.1817 11.1937C14.9897 11.322 14.8402 11.5042 14.7518 11.7175C14.6635 11.9307 14.6404 12.1653 14.6854 12.3917C14.7305 12.6181 14.8416 12.826 15.0048 12.9892C15.168 13.1525 15.376 13.2636 15.6023 13.3086C15.8287 13.3537 16.0634 13.3305 16.2766 13.2422C16.4898 13.1539 16.6721 13.0043 16.8003 12.8124C16.9286 12.6205 16.997 12.3949 16.997 12.1641C16.997 11.8545 16.8741 11.5577 16.6552 11.3389C16.4363 11.12 16.1395 10.9971 15.83 10.9971ZM9.33 12.1641C9.33 11.9332 9.26154 11.7075 9.13326 11.5156C9.00498 11.3237 8.82267 11.1741 8.60937 11.0858C8.39607 10.9975 8.16137 10.9744 7.93497 11.0195C7.70856 11.0647 7.50063 11.1759 7.33746 11.3392C7.17429 11.5025 7.06322 11.7106 7.01831 11.937C6.97339 12.1634 6.99664 12.3981 7.08512 12.6113C7.17361 12.8246 7.32334 13.0068 7.51538 13.1349C7.70743 13.263 7.93315 13.3312 8.164 13.3311C8.47334 13.3308 8.76991 13.2077 8.98855 12.9889C9.20719 12.7701 9.33 12.4734 9.33 12.1641ZM14.493 15.4041C14.1748 15.7463 13.7896 16.0193 13.3613 16.2063C12.933 16.3932 12.4708 16.49 12.0035 16.4907C11.5362 16.4913 11.0738 16.3958 10.645 16.2101C10.2162 16.0244 9.83018 15.7524 9.511 15.4111C9.34445 15.2046 9.10269 15.0727 8.83892 15.0445C8.57515 15.0163 8.31098 15.094 8.10451 15.2606C7.89803 15.4271 7.76618 15.6689 7.73796 15.9326C7.70974 16.1964 7.78745 16.4606 7.95401 16.6671C8.46045 17.2404 9.083 17.6996 9.78037 18.014C10.4777 18.3285 11.234 18.4912 11.999 18.4912C12.764 18.4912 13.5203 18.3285 14.2176 18.014C14.915 17.6996 15.5376 17.2404 16.044 16.6671C16.204 16.4608 16.2769 16.2001 16.2473 15.9408C16.2177 15.6814 16.0878 15.4439 15.8854 15.279C15.6831 15.1141 15.4243 15.0349 15.1643 15.0583C14.9043 15.0816 14.6637 15.2057 14.494 15.4041H14.493ZM12 0.503052C9.72552 0.503052 7.50211 1.17751 5.61095 2.44115C3.71978 3.70479 2.2458 5.50084 1.37539 7.60219C0.504983 9.70354 0.277244 12.0158 0.720974 14.2466C1.1647 16.4774 2.25997 18.5265 3.86828 20.1348C5.47658 21.7431 7.52568 22.8384 9.75647 23.2821C11.9872 23.7258 14.2995 23.4981 16.4009 22.6277C18.5022 21.7573 20.2983 20.2833 21.5619 18.3921C22.8255 16.5009 23.5 14.2775 23.5 12.0031C23.4966 8.95412 22.2839 6.03105 20.1279 3.87512C17.972 1.7192 15.0489 0.506493 12 0.503052ZM12 21.5031C10.1211 21.5031 8.28435 20.9459 6.72209 19.902C5.15982 18.8581 3.94218 17.3744 3.22315 15.6385C2.50412 13.9026 2.31599 11.9925 2.68255 10.1497C3.0491 8.30687 3.95389 6.61414 5.28249 5.28554C6.61109 3.95694 8.30383 3.05215 10.1466 2.68559C11.9895 2.31903 13.8996 2.50716 15.6355 3.2262C17.3714 3.94523 18.8551 5.16287 19.899 6.72513C20.9428 8.2874 21.5 10.1241 21.5 12.0031C21.4974 14.5218 20.4956 16.9366 18.7146 18.7176C16.9336 20.4987 14.5187 21.5004 12 21.5031Z" fill="#262626"/>
</g>
<defs>
<clipPath id="clip0_17_100">
<rect width="24" height="24" fill="white"/>
</clipPath>
</defs>
</svg>
