<svg width="22" height="22" viewBox="0 0 22 22" fill="none" xmlns="http://www.w3.org/2000/svg">
<g clip-path="url(#clip0_2_34)">
<path d="M20.3958 22.0229H13.3375C12.9708 22.0229 12.65 21.7021 12.65 21.3354V15.6979C12.65 14.5063 11.6875 13.5896 10.5417 13.5896C9.39583 13.5896 8.43333 14.5521 8.43333 15.6979V21.3354C8.43333 21.7021 8.1125 22.0229 7.74583 22.0229H0.6875C0.320833 22.0229 0 21.7021 0 21.3354V10.5646C0 10.3812 0.0916667 10.1979 0.183333 10.0604L10.0375 0.20625C10.3125 -0.06875 10.7708 -0.06875 11 0.20625L20.8542 10.0604C20.9917 10.1979 21.0375 10.3812 21.0375 10.5646V21.3354C21.0833 21.7021 20.7625 22.0229 20.3958 22.0229Z" fill="#262626"/>
</g>
<defs>
<clipPath id="clip0_2_34">
<rect width="22" height="22" fill="white"/>
</clipPath>
</defs>
</svg>
